<svg width="180" height="90" viewBox="0 0 180 90" fill="none" xmlns="http://www.w3.org/2000/svg">
<mask id="path-1-inside-1_192_3752" fill="white">
<path d="M0 90C2.08674e-06 66.1305 9.48212 43.2387 26.3604 26.3604C43.2387 9.48212 66.1305 2.56082e-06 90 0C113.869 -2.56082e-06 136.761 9.48211 153.64 26.3604C170.518 43.2386 180 66.1305 180 90L162 90C162 70.9044 154.414 52.5909 140.912 39.0883C127.409 25.5857 109.096 18 90 18C70.9044 18 52.5909 25.5857 39.0883 39.0883C25.5857 52.5909 18 70.9044 18 90H0Z"/>
</mask>
<path d="M0 90C2.08674e-06 66.1305 9.48212 43.2387 26.3604 26.3604C43.2387 9.48212 66.1305 2.56082e-06 90 0C113.869 -2.56082e-06 136.761 9.48211 153.64 26.3604C170.518 43.2386 180 66.1305 180 90L162 90C162 70.9044 154.414 52.5909 140.912 39.0883C127.409 25.5857 109.096 18 90 18C70.9044 18 52.5909 25.5857 39.0883 39.0883C25.5857 52.5909 18 70.9044 18 90H0Z" stroke="#E0DEF7" stroke-width="64" mask="url(#path-1-inside-1_192_3752)"/>
</svg>
